<svg width="636.9" height="75.201" viewBox="0 0 636.9 75.201" xmlns="http://www.w3.org/2000/svg"><g id="svgGroup" stroke-linecap="round" fill-rule="evenodd" font-size="9pt" stroke="#ffffff" stroke-width="0.25mm" fill="#ffffff" style="stroke:#ffffff;stroke-width:0.25mm;fill:#ffffff"><path d="M 163.6 74 L 154.6 74 L 154.6 0 L 163.6 0 L 163.6 30.3 Q 166.4 26.2 170.7 23.5 A 17.572 17.572 0 0 1 177.825 20.991 A 22.595 22.595 0 0 1 180.8 20.8 A 23.225 23.225 0 0 1 185.865 21.318 Q 190.959 22.456 193.95 26.1 Q 198.075 31.126 198.288 39.209 A 33.764 33.764 0 0 1 198.3 40.1 L 198.3 74 L 189.3 74 L 189.3 41.1 Q 189.3 35.5 186.7 32.1 A 8.42 8.42 0 0 0 180.542 28.753 A 11.979 11.979 0 0 0 179.4 28.7 A 13.23 13.23 0 0 0 172.687 30.566 A 17.586 17.586 0 0 0 170.65 31.95 Q 166.5 35.2 163.6 39.6 L 163.6 74 Z M 222.8 74 L 213.8 74 L 213.8 22 L 222.5 22 L 222.5 30.7 Q 225.3 26.5 229.65 23.65 A 17.316 17.316 0 0 1 236.756 21.025 A 22.629 22.629 0 0 1 240 20.8 A 23.225 23.225 0 0 1 245.065 21.318 Q 250.159 22.456 253.15 26.1 Q 257.275 31.126 257.488 39.209 A 33.764 33.764 0 0 1 257.5 40.1 L 257.5 74 L 248.5 74 L 248.5 41.1 A 19.265 19.265 0 0 0 248.158 37.359 Q 247.719 35.145 246.719 33.397 A 10.966 10.966 0 0 0 245.85 32.1 A 8.579 8.579 0 0 0 239.573 28.747 A 12.061 12.061 0 0 0 238.5 28.7 A 13.122 13.122 0 0 0 231.651 30.664 A 17.353 17.353 0 0 0 229.8 31.95 Q 225.7 35.2 222.8 39.6 L 222.8 74 Z M 369.3 74 L 360.3 74 L 360.3 22 L 369 22 L 369 30.7 Q 371.8 26.5 376.15 23.65 A 17.316 17.316 0 0 1 383.256 21.025 A 22.629 22.629 0 0 1 386.5 20.8 A 23.225 23.225 0 0 1 391.565 21.318 Q 396.659 22.456 399.65 26.1 Q 403.775 31.126 403.988 39.209 A 33.764 33.764 0 0 1 404 40.1 L 404 74 L 395 74 L 395 41.1 A 19.265 19.265 0 0 0 394.658 37.359 Q 394.219 35.145 393.219 33.397 A 10.966 10.966 0 0 0 392.35 32.1 A 8.579 8.579 0 0 0 386.073 28.747 A 12.061 12.061 0 0 0 385 28.7 A 13.122 13.122 0 0 0 378.151 30.664 A 17.353 17.353 0 0 0 376.3 31.95 Q 372.2 35.2 369.3 39.6 L 369.3 74 Z M 415 69.8 L 418.8 62.3 A 18.557 18.557 0 0 0 421.944 64.426 Q 423.498 65.27 425.35 65.95 A 24.073 24.073 0 0 0 432.961 67.387 A 27.464 27.464 0 0 0 433.8 67.4 Q 439.192 67.4 442.035 65.685 A 7.738 7.738 0 0 0 442.25 65.55 Q 445.1 63.7 445.1 60.8 A 7.123 7.123 0 0 0 444.786 58.653 A 6.212 6.212 0 0 0 444.05 57.1 A 6.384 6.384 0 0 0 443.121 56.006 Q 442.107 55.034 440.434 54.081 A 22.3 22.3 0 0 0 440.2 53.95 A 28.462 28.462 0 0 0 438.206 52.957 Q 436.09 51.995 433.101 50.946 A 103.602 103.602 0 0 0 432.1 50.6 A 46.616 46.616 0 0 1 427.702 48.857 Q 425.588 47.883 423.912 46.795 A 19.335 19.335 0 0 1 421.15 44.65 A 11.324 11.324 0 0 1 417.856 38.654 A 16.794 16.794 0 0 1 417.5 35.1 Q 417.5 29.1 422.75 24.95 Q 427.154 21.469 434.408 20.908 A 37.527 37.527 0 0 1 437.3 20.8 A 40.794 40.794 0 0 1 441.746 21.031 Q 444.054 21.284 446.07 21.815 A 25.234 25.234 0 0 1 446.2 21.85 Q 450.1 22.9 453.2 24.5 L 450.7 31.9 Q 448 30.3 444.55 29.3 A 25.024 25.024 0 0 0 440.067 28.453 A 31.837 31.837 0 0 0 436.9 28.3 A 20.632 20.632 0 0 0 433.963 28.495 Q 430.877 28.94 429 30.4 A 9.322 9.322 0 0 0 427.642 31.673 Q 426.94 32.492 426.605 33.365 A 4.529 4.529 0 0 0 426.3 35 A 4.921 4.921 0 0 0 427.795 38.552 A 7.082 7.082 0 0 0 428.4 39.1 Q 430.465 40.772 436.398 42.734 A 84.459 84.459 0 0 0 436.6 42.8 A 67.753 67.753 0 0 1 441.662 44.698 Q 447.589 47.217 450.4 50.1 Q 454.3 54.1 454.3 60.1 Q 454.3 66.848 449.049 70.855 A 16.618 16.618 0 0 1 448.65 71.15 Q 443.91 74.547 436.462 75.095 A 40.423 40.423 0 0 1 433.5 75.2 Q 427.6 75.2 422.85 73.7 A 30.883 30.883 0 0 1 419.01 72.215 Q 417.029 71.284 415.448 70.136 A 18.229 18.229 0 0 1 415 69.8 Z M 31 74 L 21.5 74 L 21.5 12.4 L 0 12.4 L 0 4 L 52.5 4 L 52.5 12.4 L 31 12.4 L 31 74 Z M 525.7 27.2 L 525.7 0 L 534.7 0 L 534.7 61.4 A 12.15 12.15 0 0 0 534.802 63.036 Q 535.134 65.47 536.55 66.35 Q 538.4 67.5 540.6 67.5 L 538.7 74.5 Q 529.2 74.5 527.1 66.9 Q 524.9 70 520.95 72.6 Q 517 75.2 511 75.2 Q 504.6 75.2 499.3 71.9 A 22.692 22.692 0 0 1 491.762 64.109 A 27.622 27.622 0 0 1 490.9 62.55 A 27.533 27.533 0 0 1 488.312 54.608 A 37.221 37.221 0 0 1 487.8 48.3 A 33.94 33.94 0 0 1 488.689 40.386 A 27.963 27.963 0 0 1 490.95 34.2 A 27.291 27.291 0 0 1 495.569 27.609 A 24.186 24.186 0 0 1 499.35 24.4 Q 504.6 20.8 510.9 20.8 A 21.642 21.642 0 0 1 515.172 21.202 A 15.942 15.942 0 0 1 519.85 22.9 A 34.343 34.343 0 0 1 522.43 24.489 Q 523.654 25.324 524.625 26.174 A 16.59 16.59 0 0 1 525.7 27.2 Z M 95.1 51.7 L 58.7 51.7 A 24.088 24.088 0 0 0 59.839 56.725 Q 61.175 60.538 63.8 63.1 Q 68 67.2 74.9 67.2 Q 79.4 67.2 83 66.25 Q 86.6 65.3 89.9 63.8 L 92 71.5 A 40.77 40.77 0 0 1 87.665 73.126 A 51.863 51.863 0 0 1 83.9 74.15 A 38.914 38.914 0 0 1 78.808 74.969 A 52.025 52.025 0 0 1 73.8 75.2 A 28.318 28.318 0 0 1 66.054 74.195 A 21.108 21.108 0 0 1 56.05 68.05 A 23.521 23.521 0 0 1 50.845 58.51 Q 49.5 53.845 49.5 48 A 35.359 35.359 0 0 1 50.333 40.178 A 28.84 28.84 0 0 1 52.45 34.05 A 24.642 24.642 0 0 1 57.466 26.968 A 22.887 22.887 0 0 1 60.7 24.35 A 21.048 21.048 0 0 1 70.959 20.878 A 26.205 26.205 0 0 1 73 20.8 Q 80.5 20.8 85.45 24.05 Q 90.4 27.3 92.9 32.8 A 28.185 28.185 0 0 1 95.326 42.664 A 33.434 33.434 0 0 1 95.4 44.9 A 75.204 75.204 0 0 1 95.109 51.597 A 69.426 69.426 0 0 1 95.1 51.7 Z M 593.7 51.7 L 557.3 51.7 A 24.088 24.088 0 0 0 558.439 56.725 Q 559.775 60.538 562.4 63.1 Q 566.6 67.2 573.5 67.2 Q 578 67.2 581.6 66.25 Q 585.2 65.3 588.5 63.8 L 590.6 71.5 A 40.77 40.77 0 0 1 586.265 73.126 A 51.863 51.863 0 0 1 582.5 74.15 A 38.914 38.914 0 0 1 577.408 74.969 A 52.025 52.025 0 0 1 572.4 75.2 A 28.318 28.318 0 0 1 564.654 74.195 A 21.108 21.108 0 0 1 554.65 68.05 A 23.521 23.521 0 0 1 549.445 58.51 Q 548.1 53.845 548.1 48 A 35.359 35.359 0 0 1 548.933 40.178 A 28.84 28.84 0 0 1 551.05 34.05 A 24.642 24.642 0 0 1 556.066 26.968 A 22.887 22.887 0 0 1 559.3 24.35 A 21.048 21.048 0 0 1 569.559 20.878 A 26.205 26.205 0 0 1 571.6 20.8 Q 579.1 20.8 584.05 24.05 Q 589 27.3 591.5 32.8 A 28.185 28.185 0 0 1 593.926 42.664 A 33.434 33.434 0 0 1 594 44.9 A 75.204 75.204 0 0 1 593.709 51.597 A 69.426 69.426 0 0 1 593.7 51.7 Z M 143.3 23.9 L 140.6 31.5 A 30.422 30.422 0 0 0 137.696 30.224 A 23.42 23.42 0 0 0 135.25 29.45 A 20.543 20.543 0 0 0 132.207 28.924 A 26.355 26.355 0 0 0 129.6 28.8 A 15.889 15.889 0 0 0 122.347 30.443 A 16.132 16.132 0 0 0 117.85 33.85 Q 113.1 38.9 113.1 47.8 A 25.192 25.192 0 0 0 113.805 53.86 A 21.45 21.45 0 0 0 115.1 57.6 A 18.564 18.564 0 0 0 118.01 62.177 A 16.275 16.275 0 0 0 120.65 64.6 Q 124.2 67.2 129 67.2 Q 132.165 67.2 134.568 66.61 A 15.08 15.08 0 0 0 135.5 66.35 Q 138.189 65.503 141.276 63.912 A 49.095 49.095 0 0 0 141.3 63.9 L 144.1 71.5 Q 141 73.2 137.15 74.2 Q 133.3 75.2 128.4 75.2 A 26.803 26.803 0 0 1 121.361 74.31 A 22.074 22.074 0 0 1 115.45 71.75 Q 109.9 68.3 106.9 62.15 Q 103.9 56 103.9 48 Q 103.9 40.5 106.95 34.3 Q 110 28.1 115.7 24.45 A 23.067 23.067 0 0 1 125.368 21.029 A 29.608 29.608 0 0 1 129.1 20.8 Q 133.5 20.8 136.85 21.6 Q 140.2 22.4 143.3 23.9 Z M 615 74 L 606 74 L 606 22 L 614.7 22 L 614.7 33.3 Q 616 30 618.2 27.15 Q 620.4 24.3 623.7 22.55 A 14.817 14.817 0 0 1 628.38 21.026 A 19.459 19.459 0 0 1 631.4 20.8 Q 632.9 20.8 634.4 20.95 A 18.972 18.972 0 0 1 635.455 21.084 Q 635.955 21.162 636.382 21.262 A 8.817 8.817 0 0 1 636.9 21.4 L 634.2 30.7 A 9.763 9.763 0 0 0 632.055 30.088 Q 630.959 29.9 629.7 29.9 A 12.958 12.958 0 0 0 623.07 31.746 A 15.609 15.609 0 0 0 622.65 32 Q 619.322 34.086 617.178 38.442 A 22.927 22.927 0 0 0 617.15 38.5 Q 615.387 42.107 615.07 47.328 A 39.09 39.09 0 0 0 615 49.7 L 615 74 Z M 281.6 71.75 A 24.559 24.559 0 0 0 286.198 73.84 Q 290.253 75.2 294.9 75.2 Q 302.3 75.2 308.15 71.8 Q 314 68.4 317.4 62.25 A 26.255 26.255 0 0 0 320.053 55.109 A 34.184 34.184 0 0 0 320.8 47.8 A 34.542 34.542 0 0 0 320.315 41.891 A 25.795 25.795 0 0 0 317.35 33.45 Q 313.9 27.4 308.05 24.1 A 24.848 24.848 0 0 0 303.409 22.073 A 27.738 27.738 0 0 0 294.9 20.8 A 31.325 31.325 0 0 0 293.32 20.839 A 26.169 26.169 0 0 0 281.7 24.1 Q 275.8 27.4 272.4 33.5 A 26.023 26.023 0 0 0 269.651 41.09 A 35.006 35.006 0 0 0 269 48 A 34.82 34.82 0 0 0 269.265 52.354 A 27.451 27.451 0 0 0 272.35 62.15 Q 275.7 68.3 281.6 71.75 Z M 343.3 74 L 333.8 74 L 333.8 4 L 343.3 4 L 343.3 74 Z M 475.3 74 L 466.3 74 L 466.3 22 L 475.3 22 L 475.3 74 Z M 294.9 67.2 Q 302.8 67.2 307.2 61.85 A 18.802 18.802 0 0 0 311.019 53.76 A 27.105 27.105 0 0 0 311.6 48 Q 311.6 42.8 309.4 38.45 A 19.198 19.198 0 0 0 305.228 32.881 A 18.17 18.17 0 0 0 303.45 31.45 Q 299.7 28.8 294.9 28.8 A 19.249 19.249 0 0 0 289.674 29.472 A 14.037 14.037 0 0 0 282.6 34 A 17.878 17.878 0 0 0 278.926 41.374 Q 278.2 44.306 278.2 47.8 Q 278.2 53 280.4 57.45 A 19.437 19.437 0 0 0 283.93 62.49 A 17.627 17.627 0 0 0 286.35 64.55 Q 290.1 67.2 294.9 67.2 Z M 525.7 60.9 L 525.7 35.1 A 15.847 15.847 0 0 0 523.589 32.927 Q 522.468 31.964 521.069 31.066 A 28.139 28.139 0 0 0 520.4 30.65 Q 517 28.6 512.9 28.6 A 14.946 14.946 0 0 0 507.944 29.4 A 13.385 13.385 0 0 0 504.5 31.2 A 16.69 16.69 0 0 0 499.33 37.35 A 19.924 19.924 0 0 0 498.95 38.15 A 22.19 22.19 0 0 0 497.21 44.514 A 28.113 28.113 0 0 0 497 48 A 24.757 24.757 0 0 0 497.593 53.519 A 20.327 20.327 0 0 0 499.1 57.85 A 18.205 18.205 0 0 0 502.14 62.363 A 16.122 16.122 0 0 0 504.85 64.7 Q 508.5 67.2 513 67.2 Q 516.7 67.2 520.05 65.45 Q 523.4 63.7 525.7 60.9 Z M 58.6 44.4 L 87.1 44.4 A 24.355 24.355 0 0 0 86.696 39.815 Q 86.2 37.231 85.096 35.207 A 12.422 12.422 0 0 0 83.3 32.7 A 12.488 12.488 0 0 0 76.339 28.924 A 18.395 18.395 0 0 0 72.8 28.6 A 13.58 13.58 0 0 0 67.688 29.535 A 12.524 12.524 0 0 0 63.2 32.65 Q 59.4 36.7 58.6 44.4 Z M 557.2 44.4 L 585.7 44.4 A 24.355 24.355 0 0 0 585.296 39.815 Q 584.8 37.231 583.696 35.207 A 12.422 12.422 0 0 0 581.9 32.7 A 12.488 12.488 0 0 0 574.939 28.924 A 18.395 18.395 0 0 0 571.4 28.6 A 13.58 13.58 0 0 0 566.288 29.535 A 12.524 12.524 0 0 0 561.8 32.65 Q 558 36.7 557.2 44.4 Z M 466.437 11.288 A 5.973 5.973 0 0 0 470.8 13.1 A 8.175 8.175 0 0 0 472.296 12.969 A 5.647 5.647 0 0 0 475.4 11.35 Q 477.1 9.6 477.1 6.8 A 7.26 7.26 0 0 0 477.1 6.719 A 6.06 6.06 0 0 0 475.25 2.35 A 7.395 7.395 0 0 0 475.192 2.293 A 6.059 6.059 0 0 0 470.8 0.5 A 8.264 8.264 0 0 0 469.144 0.658 A 5.661 5.661 0 0 0 466.2 2.2 A 5.588 5.588 0 0 0 464.729 4.832 A 7.987 7.987 0 0 0 464.5 6.8 A 5.992 5.992 0 0 0 464.992 9.219 A 6.643 6.643 0 0 0 466.35 11.2 A 7.466 7.466 0 0 0 466.437 11.288 Z" vector-effect="non-scaling-stroke"/></g></svg>